<?xml version="1.0" encoding="UTF-8" standalone="no"?>
<svg width="44px" height="38px" viewBox="0 0 44 38" version="1.1" xmlns="http://www.w3.org/2000/svg" xmlns:xlink="http://www.w3.org/1999/xlink" xmlns:sketch="http://www.bohemiancoding.com/sketch/ns">
    <!-- Generator: Sketch 3.2.2 (9983) - http://www.bohemiancoding.com/sketch -->
    <title>logo</title>
    <desc>Created with Sketch.</desc>
    <defs></defs>
    <g id="Page-1" stroke="none" stroke-width="1" fill="none" fill-rule="evenodd" sketch:type="MSPage">
        <g id="Bird" sketch:type="MSLayerGroup">
            <g id="g12" transform="translate(13.561627, 26.982663) scale(1, -1) translate(-13.561627, -26.982663) translate(1.079030, 23.681093)" fill="#D9B42F" sketch:type="MSShapeGroup">
                <path d="M17.9237288,6.60313901 L0.010028753,0.0592152466 L24.8668266,2.98248879 L17.9237288,6.60313901 L17.9237288,6.60313901 Z" id="path14"></path>
            </g>
            <g id="g16" transform="translate(13.348249, 25.385129) scale(1, -1) translate(-13.348249, -25.385129) translate(5.133207, 21.551048)" fill="#FFE188" sketch:type="MSShapeGroup">
                <path d="M13.8695521,5.53811659 L16.2339906,0.0178923767 L0.148510896,7.64643498 L13.8695521,5.53811659 L13.8695521,5.53811659 Z" id="path18"></path>
            </g>
            <g id="g20" transform="translate(41.635755, 12.534930) scale(1, -1) translate(-41.635755, -12.534930) translate(39.715356, 10.617890)" fill="#E83F00" sketch:type="MSShapeGroup">
                <path d="M3.84079903,3.83408072 L1.86641495,3.04596413 L0.0431023002,0.188508969 L3.84079903,3.83408072 L3.84079903,3.83408072 Z" id="path22"></path>
            </g>
            <g id="g24" transform="translate(34.849405, 13.128531) scale(1, -1) translate(-34.849405, -13.128531) translate(29.941717, 11.424496)" fill="#CD2015" sketch:type="MSShapeGroup">
                <path d="M9.8153753,3.40807175 L0.11714437,0.934237668 L4.34693099,0.0543161435 L9.8153753,3.40807175 L9.8153753,3.40807175 Z" id="path26"></path>
            </g>
            <g id="g28" transform="translate(35.489538, 12.276513) scale(1, -1) translate(-35.489538, -12.276513) translate(31.221983, 11.424496)" fill="#E83F00" sketch:type="MSShapeGroup">
                <path d="M8.53510896,1.70403587 L0.0155765738,1.26418161 L2.58357748,0.188721973 L8.53510896,1.70403587 L8.53510896,1.70403587 Z" id="path30"></path>
            </g>
            <g id="g32" transform="translate(29.569394, 17.892717) scale(1, -1) translate(-29.569394, -17.892717) translate(18.793819, 10.970072)" fill="#EA4F86" sketch:type="MSShapeGroup">
                <path d="M16.0033293,1.06502242 L19.4118251,7.56847534 L21.4250439,13.6667937 L0.208896792,1.13424888 L7.05234715,0.19426009 L16.0033293,1.06502242 L16.0033293,1.06502242 Z" id="path34"></path>
            </g>
            <g id="g36" transform="translate(21.974363, 14.942776) scale(1, -1) translate(-21.974363, -14.942776) translate(18.987075, 5.996587)" fill="#00A2C9" sketch:type="MSShapeGroup">
                <path d="M5.97457627,17.8923767 L0.0157899516,0.207892377 L3.62294038,2.33665919 L5.97457627,17.8923767 L5.97457627,17.8923767 Z" id="path38"></path>
            </g>
            <g id="g40" transform="translate(20.480719, 5.464076) scale(1, -1) translate(-20.480719, -5.464076) translate(15.573032, 0.032462)" fill="#00A2C9" sketch:type="MSShapeGroup">
                <path d="M9.38861985,4.89910314 L0.172622579,10.8138117 L9.61437349,0.143991031 L9.38861985,4.89910314 L9.38861985,4.89910314 Z" id="path42"></path>
            </g>
            <g id="g44" transform="translate(19.548984, 8.833019) scale(1, -1) translate(-19.548984, -8.833019) translate(13.787786, 5.105441)" fill="#5A8794" sketch:type="MSShapeGroup">
                <path d="M11.3090194,3.83408072 L0.200148305,7.26068386 L11.4451544,0.0208744395 L11.3090194,3.83408072 L11.3090194,3.83408072 Z" id="path46"></path>
            </g>
            <g id="g48" transform="translate(19.975740, 11.389073) scale(1, -1) translate(-19.975740, -11.389073) translate(14.641297, 8.726517)" fill="#005971" sketch:type="MSShapeGroup">
                <path d="M10.4555085,5.32511211 L0.0369143462,0.185526906 L10.5916435,1.51190583 L10.4555085,5.32511211 L10.4555085,5.32511211 Z" id="path50"></path>
            </g>
            <g id="g52" transform="translate(40.779470, 13.273502) scale(1, -1) translate(-40.779470, -13.273502) translate(38.218938, 9.332919)" fill="#CD2015" sketch:type="MSShapeGroup">
                <path d="M0,0 L5.00050696,7.81747758 L1.99998941,6.0655157 L0,0 L0,0 Z" id="path54"></path>
            </g>
            <g id="g56" transform="translate(24.013657, 13.825312) scale(1, -1) translate(-24.013657, -13.825312) translate(22.413324, 5.944146)" fill="#5EB2D1" sketch:type="MSShapeGroup">
                <path d="M3.20066586,1.91704036 L2.54837016,15.7099327 L0.196734262,0.154215247 L3.20066586,1.91704036 L3.20066586,1.91704036 Z" id="path58"></path>
            </g>
            <g id="g60" transform="translate(33.377397, 19.325343) scale(1, -1) translate(-33.377397, -19.325343) translate(30.710176, 14.745747)" fill="#F59B00" sketch:type="MSShapeGroup">
                <path d="M3.41404358,9.15919283 L5.20833686,2.2848991 L4.08703692,0.154641256 L0.16408747,7.23810538 L3.41404358,9.15919283 L3.41404358,9.15919283 Z" id="path62"></path>
            </g>
            <g id="g64" transform="translate(28.075750, 26.519399) scale(1, -1) translate(-28.075750, -26.519399) translate(21.354352, 23.750341)" fill="#E83F00" sketch:type="MSShapeGroup">
                <path d="M13.4427966,5.53811659 L4.49181447,4.66735426 L0.0128026634,0.0871188341 L13.4427966,5.53811659 L13.4427966,5.53811659 Z" id="path66"></path>
            </g>
            <g id="g68" transform="translate(29.782772, 15.336664) scale(1, -1) translate(-29.782772, -15.336664) translate(24.768395, 5.857964)" fill="#BAE2F5" sketch:type="MSShapeGroup">
                <path d="M10.028753,1.06502242 L0.193320218,18.8187332 L1.07777088,0.19426009 L10.028753,1.06502242 L10.028753,1.06502242 Z" id="path70"></path>
            </g>
            <g id="g72" transform="translate(21.239747, 23.943025) scale(1, -1) translate(-21.239747, -23.943025) translate(16.438748, 19.789437)" fill="#F59B00" sketch:type="MSShapeGroup">
                <path d="M9.17524213,8.30717489 L9.40761047,3.47538117 L0.0650802058,0.186165919 L2.56394673,4.41558296 L9.17524213,8.30717489 L9.17524213,8.30717489 Z" id="path74"></path>
            </g>
            <g id="g76" transform="translate(13.028182, 30.816743) scale(1, -1) translate(-13.028182, -30.816743) translate(0.012141, 23.681093)" fill="#FFD130" sketch:type="MSShapeGroup">
                <path d="M18.9906174,14.2713004 L25.8340678,13.3310987 L21.355056,8.75107623 L0.0300862591,0.128654709 L18.9906174,14.2713004 L18.9906174,14.2713004 Z" id="path78"></path>
            </g>
        </g>
    </g>
</svg>